<svg xmlns="http://www.w3.org/2000/svg" xmlns:xlink="http://www.w3.org/1999/xlink" width="2000" zoomAndPan="magnify" viewBox="0 0 1500 1499.999933" height="2000" preserveAspectRatio="xMidYMid meet" version="1.0"><defs><g/><clipPath id="04a30eacff"><rect x="0" width="954" y="0" height="1165"/></clipPath><clipPath id="ed9ef16e38"><path d="M 453 565 L 1019 565 L 1019 1192 L 453 1192 Z M 453 565 " clip-rule="nonzero"/></clipPath><clipPath id="c1d39ede0c"><path d="M 453.75 742.703125 L 737.558594 565.421875 L 1018.148438 1014.617188 L 734.339844 1191.898438 Z M 453.75 742.703125 " clip-rule="nonzero"/></clipPath><clipPath id="4df470cfec"><path d="M 0.601562 0.199219 L 565.320312 0.199219 L 565.320312 627 L 0.601562 627 Z M 0.601562 0.199219 " clip-rule="nonzero"/></clipPath><clipPath id="0f6ba59ce0"><path d="M 0.75 177.703125 L 284.558594 0.421875 L 565.148438 449.617188 L 281.339844 626.898438 Z M 0.75 177.703125 " clip-rule="nonzero"/></clipPath><clipPath id="ac53b1fe12"><rect x="0" width="566" y="0" height="627"/></clipPath><clipPath id="4c2d8525bf"><path d="M 429 308 L 766 308 L 766 757 L 429 757 Z M 429 308 " clip-rule="nonzero"/></clipPath><clipPath id="899f2ba943"><path d="M 502.515625 308.011719 L 765.070312 355.964844 L 691.945312 756.332031 L 429.390625 708.378906 Z M 502.515625 308.011719 " clip-rule="nonzero"/></clipPath><clipPath id="81f9e0cbce"><path d="M 0.359375 0 L 336.121094 0 L 336.121094 448 L 0.359375 448 Z M 0.359375 0 " clip-rule="nonzero"/></clipPath><clipPath id="4f856db385"><path d="M 73.515625 0.0117188 L 336.070312 47.964844 L 262.945312 448.332031 L 0.390625 400.378906 Z M 73.515625 0.0117188 " clip-rule="nonzero"/></clipPath><clipPath id="27dd0e9f91"><rect x="0" width="337" y="0" height="449"/></clipPath><clipPath id="6755aadf4d"><rect x="0" width="954" y="0" height="1165"/></clipPath></defs><g transform="matrix(1, 0, 0, 1, 365, 157)"><g clip-path="url(#04a30eacff)"><g fill="#ffffff" fill-opacity="1"><g transform="translate(12.25782, 804.819404)"><g><path d="M 71.238281 -1.449219 L 182.292969 -630.027344 L 362.578125 -630.027344 L 307.75 -339.257812 L 299.558594 -340.800781 L 294.703125 -347.578125 L 688.910156 -630.027344 L 918.75 -630.027344 L 565.800781 -374.425781 L 560.910156 -381.175781 L 567.972656 -385.601562 L 814.746094 8.335938 L 608.421875 8.335938 L 421.023438 -287.28125 L 428.0625 -291.742188 L 432.925781 -284.972656 L 275.765625 -172.097656 L 270.902344 -178.867188 L 279.140625 -177.585938 L 250.257812 8.335938 L 69.511719 8.335938 Z M 87.65625 1.449219 L 79.449219 0 L 79.449219 -8.335938 L 243.117188 -8.335938 L 243.117188 0 L 234.882812 -1.28125 L 263.203125 -183.597656 L 430.375 -303.664062 L 620.046875 -4.464844 L 613.007812 0 L 613.007812 -8.335938 L 799.6875 -8.335938 L 799.6875 0 L 792.625 4.425781 L 549.707031 -383.355469 L 888.140625 -628.441406 L 893.027344 -621.691406 L 893.027344 -613.355469 L 691.585938 -613.355469 L 691.585938 -621.691406 L 696.441406 -614.914062 L 287.515625 -321.917969 L 344.332031 -623.234375 L 352.523438 -621.691406 L 352.523438 -613.355469 L 189.285156 -613.355469 L 189.285156 -621.691406 L 197.492188 -620.238281 Z M 87.65625 1.449219 "/></g></g></g><g fill="#042039" fill-opacity="1"><g transform="translate(12.25782, 804.819404)"><g><path d="M 79.453125 0 L 189.28125 -621.6875 L 352.53125 -621.6875 L 299.5625 -340.796875 L 691.59375 -621.6875 L 893.03125 -621.6875 L 560.90625 -381.171875 L 799.6875 0 L 613.015625 0 L 428.0625 -291.75 L 270.90625 -178.859375 L 243.125 0 Z M 79.453125 0 "/></g></g></g></g></g><g clip-path="url(#ed9ef16e38)"><g clip-path="url(#c1d39ede0c)"><g transform="matrix(1, 0, 0, 1, 453, 565)"><g clip-path="url(#ac53b1fe12)"><g clip-path="url(#4df470cfec)"><g clip-path="url(#0f6ba59ce0)"><path fill="#ffffff" d="M 0.75 177.703125 L 284.558594 0.421875 L 565.019531 449.414062 L 281.214844 626.695312 Z M 0.75 177.703125 " fill-opacity="1" fill-rule="nonzero"/></g></g></g></g></g></g><g clip-path="url(#4c2d8525bf)"><g clip-path="url(#899f2ba943)"><g transform="matrix(1, 0, 0, 1, 429, 308)"><g clip-path="url(#27dd0e9f91)"><g clip-path="url(#81f9e0cbce)"><g clip-path="url(#4f856db385)"><path fill="#ffffff" d="M 73.515625 0.0117188 L 336.070312 47.964844 L 263.015625 447.945312 L 0.460938 399.992188 Z M 73.515625 0.0117188 " fill-opacity="1" fill-rule="nonzero"/></g></g></g></g></g></g><g transform="matrix(1, 0, 0, 1, 275, 157)"><g clip-path="url(#6755aadf4d)"><g fill="#ffffff" fill-opacity="1"><g transform="translate(17.083576, 804.819404)"><g><path d="M 71.671875 -1.449219 L 182.726562 -630.027344 L 515.324219 -630.027344 C 575.945312 -630.027344 630.910156 -623.640625 680.21875 -610.875 C 729.929688 -598.003906 771.800781 -578.5625 805.835938 -552.554688 C 840.253906 -526.253906 864.832031 -493.171875 879.574219 -453.3125 C 894.277344 -413.554688 897.011719 -367.324219 887.78125 -314.617188 C 879.210938 -267.03125 864.476562 -225.234375 843.582031 -189.226562 C 822.667969 -153.179688 796.691406 -122.535156 765.65625 -97.292969 C 734.75 -72.152344 699.722656 -51.824219 660.578125 -36.316406 C 621.660156 -20.894531 579.6875 -9.59375 534.65625 -2.40625 C 489.792969 4.753906 442.832031 8.335938 393.765625 8.335938 L 69.945312 8.335938 Z M 88.089844 1.449219 L 79.882812 0 L 79.882812 -8.335938 L 393.765625 -8.335938 C 441.949219 -8.335938 488.035156 -11.847656 532.027344 -18.867188 C 575.851562 -25.863281 616.65625 -36.84375 654.4375 -51.816406 C 691.988281 -66.695312 725.558594 -86.164062 755.136719 -110.226562 C 784.59375 -134.183594 809.269531 -163.308594 829.164062 -197.59375 C 849.078125 -231.914062 863.144531 -271.882812 871.359375 -317.492188 C 880.074219 -367.242188 877.597656 -410.589844 863.9375 -447.53125 C 850.3125 -484.367188 827.570312 -514.960938 795.710938 -539.308594 C 763.464844 -563.953125 723.574219 -582.425781 676.039062 -594.734375 C 628.101562 -607.148438 574.527344 -613.355469 515.324219 -613.355469 L 189.71875 -613.355469 L 189.71875 -621.691406 L 197.929688 -620.238281 Z M 262.65625 -130.328125 L 431.96875 -130.328125 C 479.636719 -130.328125 522.335938 -137.042969 560.070312 -150.46875 C 597.382812 -163.746094 628.089844 -183.753906 652.183594 -210.496094 C 676.15625 -237.101562 691.765625 -270.609375 699.011719 -311.015625 C 709.488281 -370.835938 698.746094 -415.710938 666.785156 -445.640625 C 634.238281 -476.121094 582.882812 -491.359375 512.71875 -491.359375 L 329.511719 -491.359375 L 329.511719 -499.695312 L 337.722656 -498.242188 L 270.863281 -120.539062 L 262.65625 -121.992188 Z M 252.714844 -113.65625 L 322.523438 -508.03125 L 512.71875 -508.03125 C 587.273438 -508.03125 642.425781 -491.289062 678.183594 -457.808594 C 714.527344 -423.773438 726.941406 -373.859375 715.421875 -308.070312 C 707.617188 -264.542969 690.664062 -228.296875 664.566406 -199.335938 C 638.589844 -170.503906 605.621094 -148.980469 565.65625 -134.761719 C 526.117188 -120.691406 481.554688 -113.65625 431.96875 -113.65625 Z M 252.714844 -113.65625 "/></g></g></g><g fill="#042039" fill-opacity="1"><g transform="translate(17.083576, 804.819404)"><g><path d="M 79.875 0 L 189.71875 -621.6875 L 515.328125 -621.6875 C 575.242188 -621.6875 629.507812 -615.390625 678.125 -602.796875 C 726.75 -590.210938 767.628906 -571.257812 800.765625 -545.9375 C 833.910156 -520.613281 857.570312 -488.773438 871.75 -450.421875 C 885.9375 -412.078125 888.546875 -367.289062 879.578125 -316.0625 C 871.179688 -269.457031 856.78125 -228.570312 836.375 -193.40625 C 815.96875 -158.238281 790.640625 -128.351562 760.390625 -103.75 C 730.148438 -79.15625 695.851562 -59.257812 657.5 -44.0625 C 619.15625 -28.863281 577.769531 -17.71875 533.34375 -10.625 C 488.914062 -3.539062 442.390625 0 393.765625 0 Z M 262.65625 -122 L 431.96875 -122 C 480.59375 -122 524.222656 -128.867188 562.859375 -142.609375 C 601.503906 -156.359375 633.34375 -177.125 658.375 -204.90625 C 683.414062 -232.695312 699.695312 -267.578125 707.21875 -309.546875 C 718.21875 -372.347656 706.640625 -419.738281 672.484375 -451.71875 C 638.335938 -483.707031 585.082031 -499.703125 512.71875 -499.703125 L 329.515625 -499.703125 Z M 262.65625 -122 "/></g></g></g></g></g></svg>