<svg xmlns="http://www.w3.org/2000/svg" xmlns:xlink="http://www.w3.org/1999/xlink" width="1920" zoomAndPan="magnify" viewBox="0 0 1440 809.999993" height="1080" preserveAspectRatio="xMidYMid meet" version="1.0"><defs><clipPath id="f80ff7bde5"><path d="M 500 355 L 982 355 L 982 678.402344 L 500 678.402344 Z M 500 355 " clip-rule="nonzero"/></clipPath></defs><path fill="#b0c3d4" d="M 851.3125 458.566406 C 851.859375 455.820312 854.058594 454.171875 856.804688 453.621094 L 879.332031 451.425781 C 887.574219 450.324219 894.167969 443.183594 894.167969 434.941406 L 894.167969 399.777344 C 894.167969 391.535156 887.574219 384.394531 879.332031 383.292969 L 856.804688 381.097656 C 854.058594 380.546875 851.859375 378.898438 851.3125 376.152344 C 849.113281 368.460938 845.816406 360.765625 841.96875 354.175781 C 840.871094 351.976562 840.871094 348.679688 842.519531 347.03125 L 856.804688 329.449219 C 862.300781 322.855469 861.75 313.515625 855.707031 307.472656 L 830.433594 282.199219 C 824.386719 276.152344 815.046875 275.605469 808.453125 281.097656 L 790.871094 295.382812 C 788.675781 296.484375 785.929688 296.484375 783.730469 295.382812 C 776.585938 291.539062 769.445312 288.792969 761.753906 286.042969 C 759.003906 285.496094 757.355469 283.296875 756.808594 280.550781 L 754.058594 258.023438 C 752.960938 249.78125 745.820312 243.1875 737.578125 243.1875 L 702.414062 243.1875 C 694.171875 243.1875 687.027344 249.78125 685.929688 258.023438 L 683.730469 280.550781 C 683.183594 283.296875 681.535156 285.496094 678.789062 286.042969 C 671.09375 288.242188 663.402344 291.539062 656.808594 295.382812 C 654.613281 296.484375 651.316406 296.484375 649.667969 294.835938 L 632.085938 280.550781 C 625.492188 275.054688 616.152344 275.605469 610.109375 281.648438 L 584.832031 306.921875 C 578.789062 312.964844 578.238281 322.308594 583.734375 328.898438 L 598.019531 346.480469 C 599.667969 348.679688 599.667969 351.425781 598.570312 353.625 C 594.722656 360.769531 591.976562 367.910156 589.230469 375.601562 C 588.679688 378.351562 586.480469 379.996094 583.734375 380.546875 L 560.65625 383.292969 C 552.417969 384.394531 545.824219 391.535156 545.824219 399.777344 L 545.824219 434.941406 C 545.824219 443.183594 552.417969 450.324219 560.65625 451.425781 L 583.183594 453.621094 C 585.933594 454.171875 588.128906 455.820312 588.679688 458.566406 C 590.878906 466.261719 594.171875 473.953125 598.019531 480.546875 C 599.117188 482.742188 599.117188 486.039062 597.46875 487.6875 L 583.183594 505.269531 C 577.691406 511.863281 578.238281 521.203125 584.285156 527.246094 L 609.558594 552.523438 C 615.601562 558.566406 624.941406 559.113281 631.535156 553.621094 L 649.117188 539.335938 C 651.316406 537.6875 654.0625 537.6875 656.261719 538.785156 C 663.402344 542.632812 670.546875 545.378906 678.238281 548.125 C 680.984375 548.675781 682.632812 550.875 683.183594 553.621094 L 685.378906 576.148438 C 686.480469 584.390625 693.621094 590.980469 701.863281 590.980469 L 737.027344 590.980469 C 745.269531 590.980469 752.414062 584.390625 753.511719 576.148438 L 755.707031 553.621094 C 756.257812 550.875 757.90625 548.675781 760.652344 548.125 C 768.347656 545.929688 776.039062 542.632812 782.632812 538.785156 C 784.828125 537.6875 788.125 537.6875 789.773438 539.335938 L 807.355469 553.621094 C 813.949219 559.113281 823.289062 558.566406 829.332031 552.523438 L 854.609375 527.246094 C 860.652344 521.203125 861.199219 511.863281 855.707031 505.269531 L 841.421875 487.6875 C 840.871094 486.039062 840.871094 483.292969 841.96875 481.09375 C 845.816406 473.953125 848.5625 466.261719 851.3125 458.566406 Z M 719.996094 484.390625 C 683.183594 484.390625 652.964844 454.171875 652.964844 417.359375 C 652.964844 380.546875 683.183594 350.328125 719.996094 350.328125 C 756.808594 350.328125 787.027344 380.546875 787.027344 417.359375 C 787.027344 454.171875 756.808594 484.390625 719.996094 484.390625 Z M 719.996094 484.390625 " fill-opacity="1" fill-rule="nonzero"/><path fill="#b0c3d4" d="M 557.910156 255.277344 C 644.171875 169.011719 782.632812 166.265625 872.738281 246.484375 L 860.101562 259.121094 C 856.804688 262.417969 855.707031 267.363281 856.804688 271.757812 C 857.90625 276.152344 861.75 279.449219 866.144531 280 L 925.484375 290.441406 C 926.035156 290.441406 927.132812 290.441406 927.683594 290.441406 C 930.980469 290.441406 934.277344 289.339844 936.472656 286.59375 C 939.222656 283.847656 940.320312 279.449219 939.769531 275.605469 L 929.332031 216.265625 C 928.78125 211.871094 925.484375 208.023438 921.089844 206.925781 C 916.695312 205.824219 911.75 206.925781 908.453125 210.222656 L 895.265625 223.40625 C 792.519531 131.652344 634.28125 133.847656 535.382812 232.75 C 474.394531 293.734375 447.472656 381.097656 463.40625 465.710938 C 465.054688 473.402344 471.648438 478.898438 478.792969 478.898438 C 479.890625 478.898438 480.988281 478.898438 481.539062 478.347656 C 490.328125 476.699219 495.824219 468.457031 494.175781 459.667969 C 480.441406 385.492188 504.066406 308.570312 557.910156 255.277344 Z M 557.910156 255.277344 " fill-opacity="1" fill-rule="nonzero"/><g clip-path="url(#f80ff7bde5)"><path fill="#b0c3d4" d="M 976.582031 368.460938 C 974.933594 359.667969 966.691406 354.175781 957.902344 355.824219 C 949.109375 357.472656 943.617188 365.710938 945.265625 374.503906 C 959.550781 449.226562 935.925781 525.597656 882.078125 579.445312 C 795.816406 665.707031 657.359375 668.453125 567.25 588.234375 L 579.886719 575.597656 C 583.183594 572.300781 584.285156 567.355469 583.183594 562.960938 C 581.535156 558.566406 578.238281 555.269531 573.84375 554.71875 L 515.054688 544.28125 C 511.207031 543.730469 506.8125 544.828125 504.066406 547.578125 C 501.320312 550.324219 499.671875 554.71875 500.769531 558.566406 L 511.207031 617.90625 C 512.308594 622.300781 515.054688 626.144531 519.449219 627.246094 C 520.550781 627.792969 521.648438 627.792969 523.296875 627.792969 C 526.59375 627.792969 529.890625 626.695312 532.085938 623.949219 L 545.273438 610.761719 C 594.722656 655.816406 657.359375 678.34375 719.996094 678.34375 C 787.027344 678.34375 853.507812 653.070312 904.605469 601.972656 C 965.59375 540.984375 992.515625 453.621094 976.582031 368.460938 Z M 976.582031 368.460938 " fill-opacity="1" fill-rule="nonzero"/></g></svg>